<svg xmlns="http://www.w3.org/2000/svg" viewBox="0 0 512 512" style="enable-background:new 0 0 512 512" xml:space="preserve"><circle style="fill:#c2d5d8" cx="256" cy="256" r="256"/><path style="fill:#b7c9cc" d="M464.172 404.916c-.124-.304-.232-.616-.372-.916-.252-.7-.512-1.388-.828-2.052a21.898 21.898 0 0 0-.828-2.048 21.124 21.124 0 0 0-.828-2.052c-.252-.7-.512-1.384-.828-2.048a21.54 21.54 0 0 0-.828-2.052 21.692 21.692 0 0 0-.828-2.048 20.931 20.931 0 0 0-.828-2.052 21.34 21.34 0 0 0-.828-2.052 21.692 21.692 0 0 0-.828-2.048c-.248-.7-.512-1.384-.828-2.048a20.03 20.03 0 0 0-.82-2.036 20.658 20.658 0 0 0-.832-2.068c-.248-.7-.512-1.384-.828-2.048a20.466 20.466 0 0 0-.828-2.048 20.86 20.86 0 0 0-.828-2.048 20.466 20.466 0 0 0-.828-2.048 21.004 21.004 0 0 0-.828-2.056c-.248-.7-.512-1.384-.828-2.048a20.86 20.86 0 0 0-.828-2.048 19.983 19.983 0 0 0-.828-2.052 19.983 19.983 0 0 0-.828-2.052 21.875 21.875 0 0 0-.824-2.048 22.647 22.647 0 0 0-.828-2.052c-.252-.7-.512-1.384-.828-2.048a21.974 21.974 0 0 0-.828-2.052 21.344 21.344 0 0 0-.82-2.032c-.252-.708-.512-1.4-.832-2.068-.252-.7-.512-1.384-.828-2.048-.252-.7-.512-1.388-.828-2.052a21.974 21.974 0 0 0-.828-2.052c-.252-.7-.512-1.384-.828-2.048a21.54 21.54 0 0 0-.828-2.052 22.818 22.818 0 0 0-.828-2.048 21.466 21.466 0 0 0-.828-2.048c-.252-.7-.512-1.384-.828-2.048a22.05 22.05 0 0 0-.828-2.056c-.252-.7-.512-1.384-.828-2.048-.248-.7-.512-1.384-.828-2.048a21.004 21.004 0 0 0-.828-2.056 21.692 21.692 0 0 0-.828-2.048 20.466 20.466 0 0 0-.828-2.048 19.596 19.596 0 0 0-.82-2.032 19.5 19.5 0 0 0-.832-2.064 20.931 20.931 0 0 0-.828-2.052c-.248-.7-.512-1.384-.828-2.048a21.34 21.34 0 0 0-.828-2.052 20.931 20.931 0 0 0-.828-2.052c-.248-.7-.508-1.384-.828-2.048a19.624 19.624 0 0 0-.828-2.052 20.088 20.088 0 0 0-.828-2.048 21.951 21.951 0 0 0-.824-2.052 22.568 22.568 0 0 0-.828-2.048c-.252-.7-.516-1.388-.828-2.052a22.568 22.568 0 0 0-.828-2.048c-.252-.7-.512-1.384-.828-2.048a22.05 22.05 0 0 0-.828-2.056 20.383 20.383 0 0 0-.82-2.024 20.918 20.918 0 0 0-.832-2.072c-.252-.704-.512-1.392-.828-2.048a21.898 21.898 0 0 0-.828-2.048 21.124 21.124 0 0 0-.828-2.052c-.252-.7-.512-1.384-.828-2.048a21.54 21.54 0 0 0-.828-2.052 22.818 22.818 0 0 0-.828-2.048c-.252-.7-.512-1.384-.828-2.048-.252-.7-.512-1.392-.828-2.056a21.692 21.692 0 0 0-.828-2.048 20.931 20.931 0 0 0-.828-2.052c-.248-.7-.512-1.384-.828-2.048a20.538 20.538 0 0 0-.828-2.052 21.692 21.692 0 0 0-.828-2.048 19.596 19.596 0 0 0-.82-2.032 20.212 20.212 0 0 0-.832-2.064 20.466 20.466 0 0 0-.828-2.048c-.248-.7-.512-1.384-.828-2.048-.248-.7-.508-1.384-.828-2.048a19.983 19.983 0 0 0-.828-2.052c-.248-.7-.512-1.384-.828-2.048a20.466 20.466 0 0 0-.828-2.048c-.248-.7-.512-1.384-.828-2.048a20.466 20.466 0 0 0-.828-2.048c-.248-.7-.512-1.384-.824-2.048a22.568 22.568 0 0 0-.828-2.048c-.252-.7-.512-1.384-.828-2.048a21.466 21.466 0 0 0-.828-2.048c-.252-.7-.508-1.384-.828-2.048a21 21 0 0 0-.82-2.036 21.172 21.172 0 0 0-.832-2.064c-.252-.7-.512-1.384-.828-2.048a21.466 21.466 0 0 0-.828-2.048c-.252-.7-.512-1.384-.828-2.048a21.466 21.466 0 0 0-.828-2.048c-.252-.7-.512-1.384-.828-2.048C384.084 205.632 376.736 200 368 200c-5.436 0-10.352 2.184-13.956 5.704-.092-.744-.344-1.456-.828-2.044-.092-.748-.34-1.46-.828-2.048-.092-.748-.34-1.464-.828-2.052-.092-.748-.34-1.46-.828-2.048-.092-.748-.34-1.46-.828-2.048-.092-.748-.34-1.46-.828-2.048-.092-.748-.34-1.46-.828-2.048-.092-.748-.34-1.46-.824-2.048-.096-.748-.344-1.46-.828-2.048-.096-.748-.344-1.46-.828-2.048-.096-.748-.34-1.46-.828-2.048-.096-.748-.34-1.46-.828-2.048-.096-.748-.34-1.464-.828-2.052-.096-.748-.34-1.456-.824-2.044-.092-.748-.34-1.464-.828-2.052-.096-.748-.34-1.46-.828-2.048-.096-.748-.34-1.46-.828-2.048-.096-.748-.34-1.46-.828-2.048-.096-.748-.34-1.46-.828-2.048-.096-.752-.34-1.46-.828-2.048-.096-.748-.34-1.46-.828-2.048-.096-.748-.344-1.46-.828-2.048-.092-.748-.34-1.464-.828-2.052-.096-.748-.34-1.46-.828-2.048-.096-.748-.34-1.46-.828-2.048-.096-.748-.34-1.46-.828-2.048-.092-.748-.34-1.46-.828-2.048-.092-.748-.34-1.46-.828-2.048-.092-.748-.34-1.456-.824-2.044-.088-.748-.34-1.464-.828-2.052-.092-.748-.34-1.46-.828-2.048-.092-.748-.34-1.46-.828-2.048-.092-.748-.34-1.46-.828-2.048-.092-.748-.34-1.464-.828-2.052-.092-.748-.34-1.46-.828-2.048-.092-.748-.34-1.46-.828-2.048-.092-.748-.34-1.46-.828-2.048-.092-.748-.34-1.46-.828-2.048-.092-.748-.34-1.46-.824-2.048-.096-.748-.34-1.46-.828-2.048-.096-.748-.34-1.46-.828-2.048-.096-.748-.34-1.46-.828-2.048-.096-.748-.34-1.46-.828-2.048-.092-.748-.34-1.46-.824-2.048-.092-.748-.34-1.464-.828-2.052-.096-.748-.34-1.46-.828-2.048-.096-.748-.34-1.46-.828-2.048-.096-.748-.34-1.46-.828-2.048-.096-.748-.34-1.46-.828-2.048-.096-.748-.34-1.46-.828-2.048-.156-1.228-.812-2.38-1.98-3.016a3.998 3.998 0 0 0-5.428 1.592l-10.7 19.584C282.988 115.432 269.908 112 256 112s-26.988 3.432-38.54 9.416l-10.7-19.584c-1.064-1.936-3.492-2.66-5.428-1.592a4.001 4.001 0 0 0-1.592 5.428l.444.82c.08.416.168.836.384 1.232l.444.82c.08.416.168.836.384 1.232l.444.82c.076.416.168.836.384 1.232l.444.82c.076.416.168.836.384 1.232l.444.82c.076.416.168.836.384 1.232l.444.82c.076.416.168.836.384 1.232l.436.8c.076.424.168.848.388 1.248l.444.816c.076.416.168.84.384 1.236l.444.82c.076.416.168.836.384 1.232l.444.82c.076.416.168.836.384 1.232l.408.736C186.452 142.044 172 167.3 172 196h.896c-.016.684-.068 1.36-.068 2.048h.896c-.016.684-.068 1.36-.068 2.048h.896c-.016.684-.068 1.36-.068 2.048h.896c-.016.62-.06 1.232-.06 1.852H172v32.136c-.028-.056-.06-.104-.084-.16a21.444 21.444 0 0 0-.824-2.048c-.252-.7-.516-1.384-.828-2.048a21.466 21.466 0 0 0-.828-2.048c-.252-.7-.508-1.384-.828-2.048a21 21 0 0 0-.82-2.036 21.172 21.172 0 0 0-.832-2.064c-.252-.7-.512-1.384-.828-2.048a21.466 21.466 0 0 0-.828-2.048c-.252-.7-.512-1.384-.828-2.048a21.466 21.466 0 0 0-.828-2.048c-.252-.7-.512-1.384-.828-2.048C160.084 205.632 152.736 200 144 200c-11.048 0-20 8.956-20 20v80c0 3.092.76 5.996 2.02 8.608.252.704.512 1.388.828 2.052.252.704.512 1.388.828 2.048.252.7.512 1.388.828 2.052.252.704.512 1.388.828 2.048.248.7.512 1.384.828 2.048.244.696.504 1.376.82 2.032.248.704.512 1.4.832 2.064.248.708.508 1.392.828 2.056.248.704.512 1.392.828 2.048.248.704.512 1.384.828 2.048.248.708.512 1.392.828 2.052.248.7.512 1.384.828 2.048.248.708.512 1.388.828 2.052.248.696.512 1.384.828 2.048.248.704.512 1.388.828 2.048.248.7.512 1.384.828 2.048.248.704.508 1.384.828 2.048.248.708.508 1.392.828 2.056.248.7.512 1.384.828 2.048.248.704.512 1.392.824 2.048.248.696.504 1.38.82 2.032.252.712.512 1.4.832 2.068.252.7.512 1.388.828 2.052.252.704.512 1.384.828 2.048.252.7.512 1.384.828 2.048.252.7.512 1.384.828 2.048.252.704.512 1.392.828 2.056.252.696.512 1.384.828 2.048.252.704.512 1.388.828 2.052.252.7.512 1.388.828 2.052.252.704.512 1.388.828 2.048.252.7.512 1.384.828 2.048.252.704.512 1.392.828 2.048.252.704.512 1.384.828 2.048.252.708.512 1.392.828 2.052.244.696.504 1.372.82 2.032.248.708.512 1.404.832 2.068.248.704.508 1.388.828 2.052.248.704.512 1.388.828 2.052.248.704.512 1.392.828 2.048.248.704.512 1.384.828 2.048.248.708.512 1.392.828 2.052.248.7.512 1.384.828 2.048.248.708.512 1.388.828 2.052.248.696.508 1.384.828 2.048.248.7.508 1.384.828 2.052.248.7.512 1.388.828 2.052.248.696.508 1.384.828 2.048.248.704.512 1.388.824 2.052.252.7.516 1.384.828 2.048.248.7.508 1.38.82 2.036.252.704.512 1.396.832 2.064.252.704.512 1.388.828 2.048.252.704.512 1.384.828 2.048.252.704.512 1.384.828 2.048.252.708.512 1.392.828 2.056.252.7.512 1.384.828 2.048.252.704.512 1.384.828 2.048.252.708.512 1.392.828 2.056.252.704.512 1.388.828 2.048.252.704.512 1.384.828 2.048.252.704.512 1.392.828 2.052.252.7.512 1.384.828 2.048.252.7.512 1.388.828 2.052.248.704.512 1.384.828 2.048.248.704.512 1.388.828 2.052.244.696.504 1.372.82 2.032.248.708.512 1.396.832 2.068.248.708.512 1.392.828 2.052.248.7.512 1.384.828 2.048.248.708.512 1.388.828 2.052.248.696.512 1.384.828 2.048.248.7.508 1.384.828 2.048.248.704.508 1.392.828 2.056.248.696.512 1.384.828 2.048.248.7.512 1.384.828 2.048.248.7.508 1.384.828 2.048.248.704.512 1.392.828 2.056.248.696.512 1.384.828 2.048.248.704.512 1.388.824 2.048.252.7.516 1.384.828 2.048.248.696.504 1.376.82 2.032.252.712.512 1.4.832 2.068.252.7.512 1.384.828 2.052.252.704.512 1.384.828 2.048.252.704.512 1.388.828 2.052.252.7.512 1.384.828 2.048.252.708.512 1.388.828 2.052.252.704.512 1.392.828 2.048.252.704.512 1.388.828 2.052.252.704.512 1.388.828 2.048.252.7.512 1.388.828 2.052.252.7.512 1.384.828 2.052.252.7.512 1.384.828 2.048.252.7.512 1.388.828 2.052.248.696.512 1.384.828 2.048.216.616.456 1.216.732 1.804C222.332 510.3 238.964 512 256 512c85.82 0 161.724-42.272 208.172-107.084z"/><path style="fill:#649937" d="M172 324c0 13.2 10.8 24 24 24h8v40c0 11.044 8.952 20 20 20s20-8.956 20-20v-40h24v40c0 11.044 8.952 20 20 20s20-8.956 20-20v-40h8c13.2 0 24-10.8 24-24V204H172v120zM368 200c-11.048 0-20 8.956-20 20v80c0 11.044 8.952 20 20 20s20-8.956 20-20v-80c0-11.044-8.952-20-20-20zM144 200c-11.048 0-20 8.956-20 20v80c0 11.044 8.952 20 20 20s20-8.956 20-20v-80c0-11.044-8.952-20-20-20zM301.464 125.432l10.796-19.764c1.06-1.94.344-4.368-1.592-5.428s-4.372-.348-5.428 1.592l-10.7 19.584C282.988 115.432 269.908 112 256 112s-26.988 3.432-38.54 9.416l-10.7-19.584c-1.064-1.936-3.492-2.66-5.428-1.592a4.001 4.001 0 0 0-1.592 5.428l10.796 19.764C187.372 140.388 172 166.376 172 196h168c0-29.624-15.372-55.612-38.536-70.568zM220 168c-4.416 0-8-3.584-8-8s3.584-8 8-8 8 3.584 8 8-3.584 8-8 8zm72 0c-4.416 0-8-3.584-8-8s3.584-8 8-8 8 3.584 8 8-3.584 8-8 8z"/><path style="fill:#5c8c32" d="M256 348h12v40c0 11.044 8.952 20 20 20s20-8.956 20-20v-40h8c13.2 0 24-10.8 24-24V204h-84v144zM301.464 125.432l10.796-19.764c1.06-1.94.344-4.368-1.592-5.428s-4.372-.348-5.428 1.592l-10.7 19.584C282.988 115.432 269.908 112 256 112v84h84c0-29.624-15.372-55.612-38.536-70.568zM292 168c-4.416 0-8-3.584-8-8s3.584-8 8-8 8 3.584 8 8-3.584 8-8 8zM368 200c-11.048 0-20 8.956-20 20v80c0 11.044 8.952 20 20 20s20-8.956 20-20v-80c0-11.044-8.952-20-20-20z"/></svg>