<svg version="1.0" xmlns="http://www.w3.org/2000/svg" width="70" height="70" xml:space="preserve"><path fill="#9775F8" d="M65.5 10.9 70 39.5l-17 9.9-3.2-16.2z"/><linearGradient id="a" gradientUnits="userSpaceOnUse" x1="41.069" y1="54.357" x2="46.521" y2="67.944" gradientTransform="matrix(1 0 0 -1 0 72)"><stop offset="0" style="stop-color:#9775f8"/><stop offset=".952" style="stop-color:#22d88f"/></linearGradient><path fill="url(#a)" d="M65.5 10.9 40.5 0 19.4 17.5l30.4 15.7z"/><linearGradient id="b" gradientUnits="userSpaceOnUse" x1="17.067" y1="35.739" x2="24.146" y2="4.895" gradientTransform="matrix(1 0 0 -1 0 72)"><stop offset="0" style="stop-color:#9775f8"/><stop offset=".214" style="stop-color:#689cce"/><stop offset=".423" style="stop-color:#42bdac"/><stop offset=".59" style="stop-color:#2bd197"/><stop offset=".694" style="stop-color:#22d88f"/></linearGradient><path fill="url(#b)" d="M47.3 70 18 30.6l-8.7 5.8L.6 62.5z"/><linearGradient id="c" gradientUnits="userSpaceOnUse" x1="4.9" y1="37.969" x2="66.239" y2="4.102" gradientTransform="matrix(1 0 0 -1 0 72)"><stop offset=".075" style="stop-color:#22d88f"/><stop offset=".72" style="stop-color:#9775f8"/></linearGradient><path fill="url(#c)" d="M52.8 50.1 32.3 36.6 0 32.3 47.3 70z"/><linearGradient id="d" gradientUnits="userSpaceOnUse" x1="0" y1="45.15" x2="61.646" y2="45.15" gradientTransform="matrix(1 0 0 -1 0 72)"><stop offset=".075" style="stop-color:#22d88f"/><stop offset=".266" style="stop-color:#5ab0b4"/><stop offset=".565" style="stop-color:#b86cf2"/><stop offset="1" style="stop-color:#ff59e6"/></linearGradient><path fill="url(#d)" d="M0 .5v31.8l60.8 20.9 4.7-42.3z"/><path d="M13.4 13.4h43.2v43.2H13.4z"/><g fill="#FFF"><path d="M17.8 19h7c5.6 0 9.5 3.9 9.5 8.9v.1c0 5-3.9 8.9-9.5 8.9h-7V19zm3.9 3.6v10.8h3c3.2 0 5.4-2.2 5.4-5.3V28c0-3.2-2.2-5.4-5.4-5.4h-3zM35 28c0-5.1 4-9.3 9.4-9.3 3.2 0 5.2.9 7 2.5l-2.5 3c-1.4-1.2-2.6-1.8-4.7-1.8-2.9 0-5.1 2.5-5.1 5.6 0 3.3 2.2 5.7 5.4 5.7 1.4 0 2.7-.4 3.7-1.1V30h-4v-3.4H52v7.8c-1.8 1.6-4.4 2.8-7.6 2.8-5.6 0-9.4-3.9-9.4-9.2z"/></g><path fill="#FFF" d="M17.4 48.5h16.2v2.7H17.4z"/></svg>