<svg xmlns="http://www.w3.org/2000/svg" width="32" height="32" version="1"><rect fill="#ffab30" width="28" height="28" x="-30" y="-28" rx="14" ry="14" transform="matrix(0 -1 -1 0 0 0)"/><path fill="#fff" opacity=".2" d="M14 2C6.244 2 0 8.244 0 16c0 .169.02.333.025.5A13.957 13.957 0 0 1 14 3c7.587 0 13.711 5.98 13.975 13.5.005-.167.025-.331.025-.5 0-7.756-6.244-14-14-14z"/><path opacity=".2" d="M.025 16.5C.02 16.667 0 16.831 0 17c0 7.756 6.244 14 14 14s14-6.244 14-14c0-.169-.02-.333-.025-.5C27.711 24.021 21.587 30 14 30S.289 24.021.025 16.5z"/><rect fill="#5e4095" width="28" height="28" x="-30" y="-32" rx="14" ry="14" transform="matrix(0 -1 -1 0 0 0)"/><path opacity=".2" d="M4.93 12a13.868 13.868 0 0 0-.602 2h27.344a13.958 13.958 0 0 0-.602-2H4.93zm-.88 4c-.01.166-.015.335-.025.502.018.507.063 1.006.133 1.498h27.684c.07-.492.115-.991.133-1.498-.01-.167-.014-.336-.026-.502H4.051zm.532 4c.205.693.471 1.357.775 2h25.286c.304-.643.57-1.307.775-2H4.582z"/><path fill="#fff" opacity=".8" d="M4.93 11a13.868 13.868 0 0 0-.602 2h27.344a13.958 13.958 0 0 0-.602-2H4.93zm-.88 4c-.022.332-.05.662-.05 1s.028.668.05 1H31.95c.023-.332.05-.662.05-1s-.027-.668-.05-1H4.05zm.278 4c.15.689.356 1.354.602 2h26.14c.246-.646.452-1.311.602-2H4.328z"/><path fill="#fff" opacity=".1" d="M18 2C10.244 2 4 8.244 4 16c0 .169.02.333.025.5C4.29 8.98 10.413 3 18 3c7.588 0 13.711 5.98 13.975 13.5.006-.167.026-.331.026-.5 0-7.756-6.244-14-14-14z"/><path opacity=".2" d="M18 31c-7.756 0-14-6.244-14-14 0-.169.02-.333.025-.5A13.957 13.957 0 0 0 18 30c7.588 0 13.711-5.98 13.975-13.5.006.167.026.331.026.5 0 7.756-6.244 14-14 14z"/></svg>