<svg xmlns="http://www.w3.org/2000/svg" viewBox="0 0 489.7 489.7" style="enable-background:new 0 0 489.7 489.7" xml:space="preserve"><path style="fill:#3c92ca" d="M17.1 357.45h107.7c4.4 0 8.1 3.6 8.1 8.1v65.8c0 4.4-3.6 8.1-8.1 8.1H17.1c-4.4 0-8.1-3.6-8.1-8.1v-65.8c0-4.5 3.7-8.1 8.1-8.1zM365 357.45h107.7c4.4 0 8.1 3.6 8.1 8.1v65.8c0 4.4-3.6 8.1-8.1 8.1H365c-4.4 0-8.1-3.6-8.1-8.1v-65.8c.1-4.5 3.7-8.1 8.1-8.1z"/><path d="M116.6 448.45c14 0 25.3-11.4 25.3-25.3v-49.4c0-14-11.4-25.3-25.3-25.3H80v-67.8h155.8v67.8h-36.6c-14 0-25.3 11.4-25.3 25.3v49.4c0 14 11.4 25.3 25.3 25.3h91.3c14 0 25.3-11.4 25.3-25.3v-49.4c0-14-11.4-25.3-25.3-25.3h-36.6v-67.8h155.8v67.8h-36.6c-14 0-25.3 11.4-25.3 25.3v49.4c0 14 11.4 25.3 25.3 25.3h91.3c14 0 25.3-11.4 25.3-25.3v-49.4c0-14-11.4-25.3-25.3-25.3h-36.5v-76.8c0-5-4.1-9.1-9.1-9.1H254v-47.3h74c18.3 0 33.2-14.9 33.2-33.2V74.45c0-18.3-14.9-33.2-33.2-33.2H161.8c-18.3 0-33.2 14.9-33.2 33.2v107.5c0 18.3 14.9 33.2 33.2 33.2h74v47.3H70.9c-5 0-9.1 4.1-9.1 9.1v76.8H25.3c-14 0-25.3 11.4-25.3 25.3v49.4c0 14 11.4 25.3 25.3 25.3h91.3v.1zm181.1-74.7v49.4c0 4-3.2 7.2-7.2 7.2h-91.3c-4 0-7.2-3.2-7.2-7.2v-49.4c0-4 3.2-7.2 7.2-7.2h91.3c4-.1 7.2 3.2 7.2 7.2zm174 0v49.4c0 4-3.2 7.2-7.2 7.2h-91.3c-4 0-7.2-3.2-7.2-7.2v-49.4c0-4 3.2-7.2 7.2-7.2h91.3c4-.1 7.2 3.2 7.2 7.2zm-325-191.8V74.45c0-8.3 6.8-15.1 15.1-15.1H328c8.3 0 15.1 6.8 15.1 15.1v107.5c0 8.3-6.8 15.1-15.1 15.1H161.8c-8.3 0-15.1-6.8-15.1-15.1zM18.1 423.15v-49.4c0-4 3.2-7.2 7.2-7.2h91.3c4 0 7.2 3.2 7.2 7.2v49.4c0 4-3.2 7.2-7.2 7.2H25.3c-4 0-7.2-3.2-7.2-7.2z"/></svg>