<svg xmlns="http://www.w3.org/2000/svg" width="400" height="291" viewBox="0 0 396 288" xml:space="preserve"><path fill="#FBBD16" d="M208.096 234.496v-76.329l14.633 82.436 23.824 11.874 15.314-68.528v74.974l26.886 13.228V145.616l-40.839-19.338-12.932 60.385-13.045-72.823-40.614-19.449V221.04z"/><path fill="#452E7F" d="m292.496 145.583 42.656-22.165v91.82l58.99-30.529.227 34.601-101.758 53.486z"/><path fill="#962444" d="m275.298 12.158-30.163 26.669s58.851 30.25 66 33.825c7.15 3.574 17.325 10.449 6.325 20.625-11 10.175-23.1 8.8-31.35 4.675s-69.3-34.925-69.3-34.925l-31.074 26.399s59.949 30.525 69.85 35.75c9.9 5.226 46.75 18.15 81.675-9.075 34.925-27.225 29.976-37.125 29.976-39.05s-.825-12.1-6.875-18.425c-6.051-6.325-23.65-15.4-31.075-19.25s-53.989-27.218-53.989-27.218z"/><path fill="#4A2469" d="M50.154 100.832v18.721c0 2.123-.057 3.614-.17 4.473-.113.859-.448 1.741-1.006 2.646-.557.906-1.29 1.594-2.202 2.06-.911.468-1.985.7-3.222.7-1.369 0-2.577-.275-3.626-.829-1.048-.555-1.831-1.275-2.352-2.163-.519-.889-.825-1.825-.92-2.812s-.141-3.061-.141-6.221v-16.575h5.968v21.002c0 1.223.055 2.005.162 2.344.107.341.326.511.653.511.374 0 .615-.188.725-.563.107-.375.161-1.26.161-2.655v-20.639h5.97zM69.866 100.832v28.007h-5.237l-3.104-12.732v12.732h-4.98v-28.007h5.001l3.34 12.611v-12.611h4.98zM82.308 100.832v28.007h-5.969v-28.007h5.969zM86.875 100.832h12.017v5.612h-4.929v5.297h4.39v5.337h-4.39v11.761h-7.088v-28.007zM110.365 100.832v28.007h-5.969v-28.007h5.969zM116.83 100.832h9.942v5.612h-3.974v5.297h3.717v5.337h-3.717v6.148h4.368v5.612H116.83v-28.006zM132.965 100.832h4.47c2.886 0 4.836.161 5.854.483 1.018.324 1.791.854 2.32 1.592s.86 1.56.994 2.466c.132.905.198 2.684.198 5.336v9.809c0 2.516-.097 4.195-.291 5.043-.194.849-.533 1.512-1.015 1.99-.482.479-1.079.813-1.788 1.004-.709.189-1.778.284-3.207.284h-7.535v-28.007zm5.97 4.782v18.442c.864 0 1.397-.211 1.598-.633.199-.421.299-1.566.299-3.437v-10.892c0-1.271-.033-2.084-.1-2.441s-.219-.621-.456-.789c-.238-.165-.686-.25-1.341-.25zM20.979 146.977v28.009h-5.217l-.009-18.909-2.067 18.909H9.969l-2.186-18.494-.008 18.494H2.557v-28.009h7.725c.228 1.688.464 3.676.709 5.959l.847 7.119 1.359-13.078h7.782zM41.391 163.386c0 2.813-.054 4.805-.163 5.976a7.598 7.598 0 0 1-1.021 3.207 5.835 5.835 0 0 1-2.318 2.231c-.975.519-2.109.778-3.405.778-1.229 0-2.333-.245-3.312-.736-.979-.489-1.766-1.223-2.362-2.204a7.495 7.495 0 0 1-1.063-3.199c-.113-1.154-.17-3.171-.17-6.053v-4.791c0-2.813.054-4.804.162-5.974a7.622 7.622 0 0 1 1.022-3.209 5.845 5.845 0 0 1 2.318-2.23c.975-.52 2.109-.778 3.404-.778 1.23 0 2.335.246 3.313.735.978.49 1.765 1.226 2.361 2.205.596.979.95 2.046 1.063 3.199.113 1.152.17 3.17.17 6.052v4.791zm-5.969-9.197c0-1.302-.06-2.135-.178-2.497-.119-.363-.363-.545-.732-.545-.313 0-.552.147-.719.44-.166.294-.249 1.161-.249 2.602v13.066c0 1.625.055 2.627.163 3.007.109.382.363.572.762.572.408 0 .669-.221.783-.658.112-.437.17-1.479.17-3.128v-12.859zM47.959 146.977h4.47c2.886 0 4.837.162 5.854.484 1.018.324 1.791.854 2.32 1.593a5.55 5.55 0 0 1 .993 2.464c.134.906.199 2.685.199 5.337v9.809c0 2.516-.097 4.196-.291 5.044-.193.848-.532 1.509-1.015 1.988-.482.479-1.078.813-1.788 1.003-.709.19-1.778.287-3.207.287h-7.535v-28.009zm5.97 4.783v18.442c.865 0 1.397-.211 1.597-.633.2-.42.3-1.566.3-3.438V155.24c0-1.27-.033-2.083-.1-2.441s-.218-.62-.457-.788c-.238-.167-.684-.251-1.34-.251zM68.369 146.977h12.072v5.613h-4.824v5.297h4.512v5.337h-4.512v6.147h5.303v5.614H68.369v-28.008zM92.532 146.977v22.395h4.715v5.614H84.795v-28.009h7.737zM106.169 146.977v28.009h-5.97v-28.009h5.97zM126.245 146.977v28.009h-5.238l-3.103-12.733v12.733h-4.981v-28.009h5.001l3.341 12.612v-12.612h4.98zM146.705 157.294h-5.969v-2.538c0-1.6-.058-2.602-.17-3.005-.113-.402-.381-.604-.804-.604-.366 0-.615.173-.747.519s-.197 1.233-.197 2.662v13.43c0 1.256.065 2.083.196 2.479.132.397.395.599.789.599.431 0 .724-.226.877-.675.155-.45.232-1.325.232-2.629v-3.319h-1.186v-4.25h6.978v15.023h-3.765l-.555-2.007c-.406.865-.917 1.515-1.535 1.947-.617.435-1.347.652-2.186.652-1 0-1.938-.296-2.81-.893-.872-.593-1.535-1.326-1.987-2.203a8.049 8.049 0 0 1-.85-2.758c-.112-.963-.17-2.408-.17-4.333v-8.319c0-2.673.118-4.615.354-5.826s.914-2.321 2.034-3.329c1.119-1.009 2.566-1.514 4.342-1.514 1.748 0 3.196.438 4.349 1.313 1.152.878 1.903 1.918 2.252 3.121.351 1.206.525 2.954.525 5.247v1.21zM11.112 192.022v22.395h4.833v5.613H3.177v-28.008h7.935zM31.58 191.705l3.424 28.009H28.9l-.318-5.04h-2.128l-.349 5.04h-6.183l3.048-28.009h8.61zm-3.151 18.008c-.297-3.168-.6-7.089-.907-11.767-.593 5.369-.968 9.29-1.127 11.767h2.034zM53.164 192.022v28.008h-5.983l-3.545-12.734v12.734h-5.69v-28.008h5.712l3.817 12.61v-12.61h5.689zM73.392 202.34h-6.785v-2.54c0-1.599-.064-2.599-.193-3.005-.128-.402-.434-.603-.913-.603-.417 0-.699.173-.85.519-.149.347-.225 1.233-.225 2.661v13.431c0 1.255.075 2.083.225 2.479.147.397.446.599.895.599.49 0 .823-.226 1-.675.175-.45.264-1.324.264-2.63v-3.317h-1.35v-4.249h7.932v15.021h-4.279l-.631-2.007c-.461.865-1.043 1.515-1.744 1.947-.704.435-1.532.652-2.487.652a6.085 6.085 0 0 1-3.192-.893c-.992-.593-1.745-1.326-2.26-2.203s-.837-1.796-.965-2.757c-.13-.964-.193-2.41-.193-4.334v-8.318c0-2.674.133-4.616.401-5.827.269-1.21 1.04-2.32 2.313-3.33 1.272-1.009 2.917-1.512 4.937-1.512 1.986 0 3.636.437 4.945 1.314 1.311.874 2.163 1.914 2.561 3.12.397 1.203.596 2.952.596 5.246v1.211zM92.757 192.022v18.721c0 2.122-.063 3.614-.186 4.472-.124.859-.49 1.741-1.099 2.647a5.832 5.832 0 0 1-2.405 2.059c-.997.468-2.17.702-3.521.702-1.496 0-2.817-.276-3.962-.83-1.146-.553-2.002-1.275-2.568-2.164-.569-.888-.904-1.823-1.008-2.812-.103-.986-.153-3.06-.153-6.22v-16.575h6.522v21.001c0 1.223.058 2.006.178 2.344.116.342.354.513.713.513.409 0 .673-.188.789-.564.117-.372.178-1.26.178-2.655v-20.638h6.522zM108.235 192.022l3.424 28.008h-6.104l-.319-5.04h-2.128l-.349 5.04h-6.182l3.048-28.008h8.61zm-3.15 18.006c-.298-3.167-.6-7.089-.908-11.765-.593 5.368-.969 9.29-1.126 11.765h2.034zM130.512 202.34h-6.65v-2.54c0-1.599-.063-2.599-.188-3.005-.126-.402-.423-.603-.896-.603-.407 0-.686.173-.832.519-.146.347-.22 1.233-.22 2.661v13.431c0 1.255.073 2.083.219 2.479.146.397.438.599.878.599.48 0 .807-.226.979-.675.173-.45.259-1.324.259-2.63v-3.317h-1.321v-4.249h7.773v15.021h-4.194l-.617-2.007c-.452.865-1.022 1.515-1.711 1.947-.688.435-1.5.652-2.435.652a5.87 5.87 0 0 1-3.129-.893c-.974-.593-1.712-1.326-2.216-2.203a7.413 7.413 0 0 1-.946-2.757c-.125-.964-.188-2.41-.188-4.334v-8.318c0-2.674.132-4.616.396-5.827.262-1.21 1.017-2.32 2.264-3.33 1.247-1.009 2.86-1.512 4.838-1.512 1.947 0 3.562.437 4.846 1.314 1.284.874 2.12 1.914 2.51 3.12.39 1.203.584 2.952.584 5.246v1.211zM134.736 192.022h12.071v5.612h-4.823v5.299h4.512v5.336h-4.512v6.147h5.303v5.613h-12.551v-28.007z"/><path fill="#6D6E71" d="M393.104 167.064c0 4.471-3.509 7.979-8.076 7.979-4.519 0-8.123-3.509-8.123-7.979 0-4.375 3.604-7.884 8.123-7.884 4.568.001 8.076 3.509 8.076 7.884zm-14.18 0c0 3.509 2.596 6.298 6.153 6.298 3.461 0 6.009-2.789 6.009-6.25 0-3.51-2.548-6.346-6.058-6.346-3.508.001-6.104 2.837-6.104 6.298zm4.855 4.134h-1.827v-7.883c.722-.146 1.731-.241 3.029-.241 1.489 0 2.163.241 2.739.577.433.336.769.961.769 1.73 0 .864-.672 1.538-1.634 1.827v.096c.77.289 1.202.864 1.442 1.923.24 1.202.385 1.683.576 1.971h-1.97c-.241-.288-.385-1.01-.626-1.923-.144-.865-.625-1.25-1.635-1.25h-.864v3.173zm.048-4.47h.865c1.01 0 1.827-.336 1.827-1.153 0-.721-.528-1.202-1.683-1.202-.481 0-.817.048-1.01.097v2.258z"/><g fill="#4A2469"><path d="M156.248 210.816h-3.273v-1.182h7.967v1.182h-3.289v9.577h-1.404v-9.577zM171.209 215.668c-.08-1.5-.176-3.303-.159-4.645h-.049a64.925 64.925 0 0 1-1.355 4.086l-1.9 5.221h-1.053l-1.741-5.124c-.511-1.517-.941-2.906-1.245-4.183h-.032c-.03 1.342-.11 3.145-.207 4.758l-.288 4.612h-1.324l.75-10.759h1.772l1.835 5.204c.448 1.323.814 2.505 1.086 3.623h.048c.271-1.085.654-2.267 1.134-3.623l1.916-5.204h1.771l.671 10.759h-1.356l-.274-4.725z"/></g></svg>